<svg width="30" height="33" viewBox="0 0 30 33" fill="none" xmlns="http://www.w3.org/2000/svg">
<g clip-path="url(#clip0_8_548)">
<path d="M14.9999 16.6719C16.4755 16.6719 17.6718 15.4756 17.6718 14C17.6718 12.5244 16.4755 11.3281 14.9999 11.3281C13.5242 11.3281 12.328 12.5244 12.328 14C12.328 15.4756 13.5242 16.6719 14.9999 16.6719Z" fill="#61DAFB"/>
<path d="M25.1484 9.59375C24.6327 9.40625 24.0937 9.21875 23.5312 9.05469C23.6718 8.49219 23.789 7.92969 23.8827 7.39063C24.3749 4.29688 23.8359 2.11719 22.3359 1.27344C21.8906 1.01562 21.3984 0.898438 20.8359 0.898438C19.1952 0.898438 17.1093 2.11719 14.9999 4.15625C12.8906 2.11719 10.8046 0.898438 9.164 0.898438C8.6015 0.898438 8.10931 1.01562 7.664 1.27344C6.164 2.14063 5.62494 4.32031 6.11713 7.39063C6.21088 7.92969 6.32806 8.49219 6.46869 9.05469C5.90619 9.21875 5.36713 9.38282 4.8515 9.59375C1.92181 10.7188 0.328064 12.2656 0.328064 14C0.328064 15.7344 1.94525 17.2813 4.8515 18.4063C5.36713 18.5938 5.90619 18.7813 6.46869 18.9453C6.32806 19.5078 6.21088 20.0703 6.11713 20.6094C5.62494 23.7031 6.164 25.8828 7.664 26.7266C8.10931 26.9844 8.6015 27.1016 9.164 27.1016C10.8281 27.1016 12.914 25.8828 14.9999 23.8438C17.1093 25.8828 19.1952 27.1016 20.8359 27.1016C21.3984 27.1016 21.8906 26.9844 22.3359 26.7266C23.8359 25.8594 24.3749 23.6797 23.8827 20.6094C23.789 20.0703 23.6718 19.5078 23.5312 18.9453C24.0937 18.7813 24.6327 18.6172 25.1484 18.4063C28.0781 17.2813 29.6718 15.7344 29.6718 14C29.6718 12.2656 28.0781 10.7188 25.1484 9.59375ZM21.6796 2.44531C22.6406 3.00781 22.9687 4.74219 22.5702 7.20313C22.4999 7.69531 22.3827 8.21094 22.2421 8.75C21.0234 8.46875 19.7343 8.28125 18.3749 8.16406C17.5781 7.03906 16.7577 6.03125 15.9374 5.11719C17.6718 3.40625 19.4296 2.23438 20.8593 2.23438C21.164 2.23438 21.4452 2.30469 21.6796 2.44531ZM19.0546 16.3438C18.6327 17.0938 18.1406 17.8438 17.6249 18.5938C16.7577 18.6641 15.8906 18.6875 14.9999 18.6875C14.0859 18.6875 13.2187 18.6641 12.3749 18.5938C11.8593 17.8438 11.3906 17.0938 10.9687 16.3438C10.5234 15.5703 10.1015 14.7734 9.7265 14C10.1015 13.2266 10.5234 12.4297 10.9687 11.6563C11.3906 10.9063 11.8827 10.1563 12.3984 9.40625C13.2656 9.33594 14.1327 9.3125 15.0234 9.3125C15.9374 9.3125 16.8046 9.33594 17.6484 9.40625C18.164 10.1563 18.6327 10.9063 19.0546 11.6563C19.4999 12.4297 19.9218 13.2266 20.2968 14C19.8984 14.7734 19.4999 15.5469 19.0546 16.3438ZM20.9999 15.5703C21.3515 16.3906 21.6327 17.1875 21.8906 17.9844C21.0937 18.1719 20.2499 18.3125 19.3593 18.4297C19.6406 17.9844 19.9452 17.5156 20.2031 17.0234C20.4843 16.5313 20.7421 16.0391 20.9999 15.5703ZM14.9999 21.9219C14.4374 21.3125 13.8984 20.6563 13.3827 19.9766C13.9218 20 14.4609 20.0234 14.9999 20.0234C15.539 20.0234 16.0781 20 16.6171 19.9766C16.1015 20.6563 15.5624 21.3125 14.9999 21.9219ZM10.6406 18.4063C9.74994 18.2891 8.90619 18.1484 8.10931 17.9609C8.36712 17.1875 8.64837 16.3672 8.99994 15.5469C9.25775 16.0156 9.51556 16.5078 9.79681 16.9766C10.0781 17.4922 10.3593 17.9375 10.6406 18.4063ZM8.99994 12.4297C8.64837 11.6094 8.36712 10.8125 8.10931 10.0156C8.90619 9.82813 9.74994 9.6875 10.6406 9.57032C10.3593 10.0156 10.0546 10.4844 9.79681 10.9766C9.51556 11.4688 9.25775 11.9609 8.99994 12.4297ZM14.9999 6.07813C15.5624 6.6875 16.1015 7.34375 16.6171 8.02344C16.0781 8 15.539 7.97656 14.9999 7.97656C14.4609 7.97656 13.9218 8 13.3827 8.02344C13.8984 7.34375 14.4374 6.6875 14.9999 6.07813ZM20.2031 11L19.3593 9.59375C20.2499 9.71094 21.0937 9.85157 21.8906 10.0391C21.6327 10.8125 21.3515 11.6328 20.9999 12.4531C20.7421 11.9609 20.4843 11.4688 20.2031 11ZM7.42963 7.20313C7.03119 4.74219 7.35931 3.00781 8.32025 2.44531C8.55462 2.30469 8.83587 2.23438 9.14056 2.23438C10.5468 2.23438 12.3046 3.38281 14.0624 5.11719C13.2421 6.00781 12.4218 7.03906 11.6249 8.16406C10.2656 8.28125 8.9765 8.49219 7.75775 8.75C7.61712 8.21094 7.52338 7.69531 7.42963 7.20313ZM1.64056 14C1.64056 12.8984 2.9765 11.7266 5.32025 10.8594C5.789 10.6719 6.30463 10.5078 6.82025 10.3672C7.19525 11.5391 7.664 12.7813 8.2265 14.0234C7.664 15.2656 7.17181 16.4844 6.82025 17.6563C3.58588 16.7188 1.64056 15.3125 1.64056 14ZM8.32025 25.5547C7.35931 24.9922 7.03119 23.2578 7.42963 20.7969C7.49994 20.3047 7.61712 19.7891 7.75775 19.25C8.9765 19.5313 10.2656 19.7188 11.6249 19.8359C12.4218 20.9609 13.2421 21.9688 14.0624 22.8828C12.3281 24.5938 10.5702 25.7656 9.14056 25.7656C8.83587 25.7656 8.55462 25.6953 8.32025 25.5547ZM22.5702 20.7969C22.9687 23.2578 22.6406 24.9922 21.6796 25.5547C21.4452 25.6953 21.164 25.7656 20.8593 25.7656C19.4531 25.7656 17.6952 24.6172 15.9374 22.8828C16.7577 21.9922 17.5781 20.9609 18.3749 19.8359C19.7343 19.7188 21.0234 19.5078 22.2421 19.25C22.3827 19.7891 22.4765 20.3047 22.5702 20.7969ZM24.6796 17.1406C24.2109 17.3281 23.6952 17.4922 23.1796 17.6328C22.8046 16.4609 22.3359 15.2188 21.7734 13.9766C22.3359 12.7344 22.8281 11.5156 23.1796 10.3438C26.414 11.2813 28.3593 12.6875 28.3593 14C28.3593 15.1016 26.9999 16.2734 24.6796 17.1406Z" fill="#61DAFB"/>
</g>
<rect x="2.25" y="19.25" width="24.5371" height="12.587" rx="1.75" fill="#1E1E1E"/>
<rect x="2.25" y="19.25" width="24.5371" height="12.587" rx="1.75" stroke="#61DAFB" stroke-width="0.5"/>
<path d="M8.8787 26.0719C8.84777 26.492 8.74197 26.8611 8.56129 27.1792C8.38527 27.4973 8.13663 27.7456 7.81537 27.9243C7.49875 28.0983 7.10945 28.1862 6.64745 28.1881C6.12946 28.1903 5.68799 28.0778 5.32304 27.8506C4.96274 27.6188 4.68846 27.3096 4.50019 26.923C4.31192 26.5365 4.2168 26.1052 4.21483 25.6292C4.21337 25.2792 4.26334 24.95 4.36473 24.6416C4.47077 24.3284 4.62597 24.0548 4.83034 23.8206C5.0347 23.5864 5.28594 23.4034 5.58407 23.2715C5.88684 23.1349 6.23422 23.0658 6.62622 23.0642C7.28421 23.0614 7.79827 23.2343 8.16838 23.5828C8.54314 23.9266 8.76907 24.3923 8.84618 24.98L7.76818 24.9845C7.74419 24.8259 7.70395 24.6861 7.64744 24.5649C7.59092 24.4392 7.51582 24.3345 7.42214 24.2509C7.33311 24.1626 7.22317 24.0977 7.09233 24.0562C6.96147 24.0101 6.80738 23.9874 6.63005 23.9882C6.31271 23.9895 6.05171 24.0699 5.84704 24.2294C5.64701 24.3842 5.50085 24.5878 5.40857 24.8402C5.31626 25.0879 5.27068 25.3495 5.27182 25.6248C5.27298 25.9048 5.32075 26.1706 5.41512 26.4222C5.50948 26.6692 5.65732 26.8716 5.85864 27.0294C6.06463 27.1872 6.32629 27.2654 6.64362 27.2641C6.83962 27.2633 7.0075 27.2346 7.14727 27.178C7.28704 27.1215 7.40337 27.0416 7.49628 26.9386C7.59385 26.8355 7.66801 26.7116 7.71874 26.5667C7.76947 26.4218 7.80146 26.2583 7.81471 26.0763L8.8787 26.0719ZM11.9855 25.814L12.9865 25.8098L12.9958 28.0498L11.9948 28.054L11.9855 25.814ZM11.2851 24.0249C11.8405 24.0226 12.2611 24.1818 12.5471 24.5026C12.8378 24.8234 12.9843 25.2592 12.9865 25.8098L11.9855 25.814C11.9849 25.646 11.9679 25.4944 11.9347 25.3592C11.9014 25.2193 11.8333 25.1076 11.7303 25.024C11.6319 24.9404 11.4848 24.8991 11.2888 24.8999C11.0414 24.9009 10.855 24.9647 10.7295 25.0912C10.6087 25.213 10.5486 25.3556 10.5493 25.5189L9.50632 25.5233C9.50522 25.2573 9.5742 25.012 9.71327 24.7874C9.85233 24.5581 10.0546 24.3753 10.32 24.2389C10.5854 24.0978 10.9071 24.0264 11.2851 24.0249ZM12.0826 25.5896L12.2324 26.254C11.6816 26.2329 11.2852 26.2882 11.0431 26.4199C10.8056 26.5469 10.6872 26.7037 10.688 26.8904C10.6885 27.0164 10.7356 27.1095 10.8292 27.1698C10.9274 27.23 11.0395 27.2599 11.1655 27.2594C11.2869 27.2589 11.4105 27.2397 11.5363 27.2019C11.6668 27.164 11.7738 27.0912 11.8574 26.9835C11.9456 26.8758 11.9893 26.717 11.9884 26.507L12.1787 26.8142C12.1798 27.0755 12.1317 27.3091 12.0346 27.5148C11.9374 27.7159 11.7981 27.8751 11.6166 27.9925C11.4397 28.1099 11.2253 28.1692 10.9733 28.1702C10.7166 28.1713 10.4878 28.1255 10.2867 28.033C10.0903 27.9359 9.93341 27.7965 9.81599 27.615C9.70324 27.4335 9.64632 27.212 9.64524 26.9507C9.6442 26.6987 9.69233 26.4908 9.78966 26.3271C9.89165 26.1633 10.0264 26.0344 10.1941 25.9404C10.3663 25.8417 10.5573 25.7686 10.7672 25.721C10.9816 25.6735 11.2008 25.6422 11.4248 25.6273C11.6534 25.6077 11.8726 25.5951 12.0826 25.5896ZM13.8908 24.1261L14.8918 24.1219L14.908 28.0419L13.907 28.046L13.8908 24.1261ZM14.9001 26.1239L14.7921 25.4033C14.7916 25.282 14.8027 25.142 14.8253 24.9832C14.848 24.8244 14.901 24.6726 14.9844 24.5275C15.0725 24.3778 15.2073 24.2536 15.3889 24.1549C15.5705 24.0561 15.8176 24.0061 16.1303 24.0048L16.1344 24.9848C15.859 24.9859 15.6281 25.0172 15.4417 25.0787C15.26 25.1401 15.1228 25.2526 15.0301 25.4164C14.9421 25.5754 14.8988 25.8112 14.9001 26.1239ZM18.3406 28.1397C17.9719 28.1412 17.6542 28.0562 17.3875 27.8846C17.1254 27.7084 16.9238 27.4642 16.7825 27.1521C16.6412 26.84 16.5697 26.4833 16.568 26.082C16.5664 25.676 16.6349 25.3164 16.7736 25.0031C16.9123 24.6899 17.1119 24.4441 17.3725 24.2656C17.6378 24.0872 17.9547 23.9972 18.3234 23.9957C18.5847 23.9946 18.8066 24.0404 18.989 24.1329C19.176 24.2255 19.3283 24.3602 19.4457 24.5371L19.4583 27.596C19.347 27.7645 19.2006 27.8981 19.019 27.9969C18.842 28.0909 18.6159 28.1385 18.3406 28.1397ZM18.5119 27.2429C18.7265 27.2421 18.9036 27.19 19.0432 27.0867C19.1828 26.9788 19.2848 26.8361 19.3494 26.6585C19.4187 26.4809 19.4529 26.2847 19.452 26.07C19.4511 25.8507 19.4153 25.6525 19.3445 25.4755C19.2785 25.2938 19.1752 25.1518 19.0348 25.0498C18.8943 24.943 18.7168 24.8901 18.5021 24.891C18.3015 24.8918 18.1313 24.9462 17.9918 25.0541C17.8569 25.1573 17.7548 25.3001 17.6856 25.4824C17.621 25.66 17.5891 25.8584 17.59 26.0778C17.5909 26.2924 17.6244 26.4883 17.6905 26.6653C17.7612 26.8424 17.8645 26.9843 18.0002 27.0911C18.1407 27.1932 18.3112 27.2438 18.5119 27.2429ZM19.4601 28.023L19.4383 22.7731L20.4393 22.7689L20.4611 28.0189L19.4601 28.023ZM22.3091 26.7722C22.3332 26.9588 22.4155 27.0891 22.5558 27.1632C22.6961 27.2326 22.8572 27.2669 23.0392 27.2662C23.2165 27.2655 23.3634 27.2345 23.4798 27.1734C23.5962 27.1075 23.6541 27.0023 23.6535 26.8576C23.6531 26.7643 23.6108 26.6945 23.5266 26.6482C23.4424 26.5972 23.3326 26.558 23.1971 26.5305C23.0617 26.4984 22.9122 26.4687 22.7488 26.4414C22.5853 26.4141 22.4195 26.3774 22.2513 26.3314C22.0878 26.2855 21.9382 26.2207 21.8025 26.1373C21.6668 26.0539 21.5567 25.94 21.4721 25.7957C21.3875 25.6514 21.3447 25.4672 21.3438 25.2432C21.3429 25.0332 21.4098 24.8323 21.5443 24.6404C21.6835 24.4438 21.8765 24.2843 22.1233 24.162C22.3701 24.0396 22.6522 23.9778 22.9696 23.9764C23.2542 23.9753 23.5181 24.0325 23.7613 24.1482C24.0044 24.2592 24.2011 24.4147 24.3512 24.6147C24.5014 24.8148 24.577 25.0478 24.5781 25.3138L23.5771 25.3179C23.5577 25.1314 23.4872 25.0033 23.3655 24.9338C23.2486 24.8643 23.1084 24.8299 22.9451 24.8306C22.7444 24.8314 22.5929 24.8717 22.4906 24.9514C22.3882 25.0265 22.3373 25.1224 22.3378 25.2391C22.3382 25.3417 22.3805 25.4209 22.4648 25.4766C22.549 25.5322 22.6589 25.5761 22.7943 25.6082C22.9298 25.6403 23.0792 25.67 23.2427 25.6973C23.4108 25.72 23.5766 25.7543 23.7401 25.8003C23.9036 25.8416 24.0532 25.904 24.1889 25.9874C24.3246 26.0662 24.4347 26.1754 24.5193 26.315C24.6038 26.4547 24.6466 26.6342 24.6475 26.8535C24.6485 27.1008 24.5794 27.3205 24.4402 27.5124C24.3057 27.6996 24.1149 27.8474 23.8681 27.9558C23.6258 28.0641 23.3391 28.119 23.0077 28.1203C22.6997 28.1216 22.4172 28.0644 22.16 27.9488C21.9075 27.8285 21.7038 27.6684 21.549 27.4684C21.3942 27.2637 21.3115 27.033 21.3011 26.7764L22.3091 26.7722Z" fill="#61DAFB"/>
<defs>
<clipPath id="clip0_8_548">
<rect width="30" height="28" fill="white"/>
</clipPath>
</defs>
</svg>
